<svg id="johnlogo" xmlns="http://www.w3.org/2000/svg" viewBox="0 0 1500 600"><style>.st0{fill:#eee}</style><path class="st0" d="M292 8v284H8V8h284m8-8H0v300h300V0zm1192 8v284h-284V8h284m8-8h-300v300h300V0zM692 8v284H408V8h284m8-8H400v300h300V0z"/><path class="st0" d="M1092 8v284H808V8h284m8-8H800v300h300V0zM176.1 55.3h23.6v125.9c0 17-5.1 30.3-15.3 39.9-10.2 9.6-23.8 14.4-40.8 14.4-17.7 0-31.4-4.5-41.3-13.5-9.8-9-14.8-21.7-14.8-38h23.4c0 10.2 2.8 18.1 8.4 23.8 5.6 5.7 13.7 8.5 24.2 8.5 9.7 0 17.5-3.1 23.5-9.2s9-14.6 9.1-25.6V55.3zm445.3 94.6c0 17.4-2.9 32.6-8.8 45.6s-14.2 22.9-24.9 29.7-23.3 10.3-37.6 10.3c-14 0-26.4-3.4-37.2-10.3-10.8-6.9-19.2-16.7-25.2-29.4s-9.1-27.5-9.2-44.3v-12.8c0-17.1 3-32.2 8.9-45.3 5.9-13.1 14.3-23.1 25.2-30.1s23.3-10.4 37.3-10.4c14.2 0 26.8 3.4 37.7 10.3 10.9 6.9 19.2 16.8 25.1 29.9s8.8 28.3 8.8 45.6v11.2zm-23.3-11.4c0-21.1-4.2-37.3-12.7-48.5-8.5-11.3-20.3-17-35.5-17-14.8 0-26.5 5.6-35 16.9-8.5 11.3-12.9 26.9-13.1 46.9v13.1c0 20.4 4.3 36.5 12.9 48.2 8.6 11.7 20.4 17.5 35.5 17.5 15.1 0 26.9-5.5 35.2-16.5 8.3-11 12.6-26.8 12.8-47.4v-13.2z"/><path class="st0" d="M1018.1 233.1h-23.6v-82.2H905v82.2h-23.4V55.3H905v76.4h89.6V55.3h23.6v177.8zm400-11.1h-23.6L1305 85v137h-23.6V44.3h23.6l89.7 137.6V44.3h23.3V222zM65 494.3V550H45.3V407.8h55.1c16.3 0 29.1 4 38.4 11.9 9.3 7.9 13.9 18.5 13.9 31.5 0 13.8-4.5 24.4-13.6 31.9s-22 11.2-38.9 11.2H65zm0-15.3h35.4c10.5 0 18.6-2.4 24.2-7.1 5.6-4.7 8.4-11.6 8.4-20.5 0-8.5-2.8-15.3-8.4-20.3-5.6-5.1-13.3-7.7-23.1-7.9H65V479zm226.5-18.5c-2.9-.5-6-.7-9.3-.7-12.4 0-20.9 5-25.3 15.1v75h-19V444.3h18.5l.3 12.2c6.2-9.4 15-14.2 26.5-14.2 3.7 0 6.5.5 8.4 1.4v16.8zm73.3 35.7c0-10.4 2.1-19.7 6.4-27.9 4.3-8.3 10.2-14.6 17.8-19.1 7.6-4.5 16.3-6.7 26.1-6.7 15.1 0 27.3 5 36.7 14.9s14 23.2 14 39.7v1.3c0 10.3-2.1 19.5-6.2 27.7s-10 14.5-17.7 19.1c-7.7 4.6-16.5 6.8-26.5 6.8-15 0-27.2-5-36.6-14.9s-14-23.1-14-39.6v-1.3zm19.1 2.1c0 11.7 2.9 21.1 8.6 28.2 5.7 7.1 13.3 10.6 22.9 10.6 9.6 0 17.3-3.6 23-10.8 5.7-7.2 8.5-17.3 8.5-30.2 0-11.6-2.9-21-8.7-28.2-5.8-7.2-13.5-10.8-23-10.8-9.4 0-16.9 3.5-22.7 10.6-5.7 7.3-8.6 17.4-8.6 30.6zm199.7 2.8l-11.9 11.8V550h-19V400h19v90.7l10.2-11.6 34.6-34.8h23.1l-43.2 44.1 48.2 61.5h-22.3l-38.7-48.8zm133.4-4.9c0-10.4 2.1-19.7 6.4-27.9 4.3-8.3 10.2-14.6 17.8-19.1 7.6-4.5 16.3-6.7 26.1-6.7 15.1 0 27.3 5 36.7 14.9s14 23.2 14 39.7v1.3c0 10.3-2.1 19.5-6.2 27.7s-10 14.5-17.7 19.1c-7.7 4.6-16.5 6.8-26.5 6.8-15 0-27.2-5-36.6-14.9-9.3-10-14-23.1-14-39.6v-1.3zm19.1 2.1c0 11.7 2.9 21.1 8.6 28.2 5.7 7.1 13.3 10.6 22.9 10.6 9.6 0 17.3-3.6 23-10.8 5.7-7.2 8.5-17.3 8.5-30.2 0-11.6-2.9-21-8.7-28.2-5.8-7.2-13.5-10.8-23-10.8-9.4 0-16.9 3.5-22.7 10.6-5.7 7.3-8.6 17.4-8.6 30.6zm262.4 0c0 16.1-3.9 29-11.6 38.9-7.7 9.8-18.2 14.7-31.4 14.7-13.5 0-24.1-4.1-31.8-12.2v50.9h-19V444.3H922l.9 11.7c7.7-9.1 18.5-13.7 32.2-13.7 13.3 0 23.9 4.8 31.6 14.4 7.8 9.6 11.6 22.9 11.6 39.9v1.7zm-18.9-2c0-11.9-2.7-21.3-8-28.2-5.3-6.9-12.6-10.4-21.9-10.4-11.5 0-20.1 4.9-25.8 14.6v50.5c5.7 9.6 14.4 14.5 26 14.5 9.1 0 16.3-3.4 21.7-10.3 5.3-7 8-17.2 8-30.7zm106.1-80c0-2.9.9-5.4 2.8-7.4s4.7-3 8.4-3 6.5 1 8.4 3c1.9 2 2.9 4.5 2.9 7.4s-1 5.4-2.9 7.3c-1.9 2-4.7 2.9-8.4 2.9s-6.5-1-8.4-2.9c-1.8-1.9-2.8-4.4-2.8-7.3zm20.5 133.7h-19V444.3h19V550zm139.4 2c-15 0-27.3-4.7-36.7-14.1-9.4-9.4-14.2-22-14.2-37.7v-3.3c0-10.5 2.1-19.8 6.3-28.1 4.2-8.2 10.1-14.7 17.6-19.3 7.6-4.7 15.7-7 24.6-7 14.4 0 25.6 4.5 33.6 13.6 8 9 12 22 12 38.9v7.5h-75.2c.3 10.4 3.5 18.8 9.6 25.2 6.1 6.4 13.9 9.6 23.3 9.6 6.7 0 12.4-1.3 17-3.9 4.6-2.6 8.7-6.1 12.2-10.4l11.6 8.6c-9.1 13.6-23.1 20.4-41.7 20.4zm-2.3-94.8c-7.7 0-14.1 2.7-19.3 8-5.2 5.3-8.4 12.7-9.6 22.3h55.6v-1.4c-.5-9.2-3.1-16.3-7.8-21.3-4.7-5-11-7.6-18.9-7.6zm165.8 68.3l27.5-81.2h19.4L1416.2 550h-14.5l-40.2-105.7h19.4l28.2 81.2z"/></svg>